<?xml version="1.0" encoding="UTF-8"?>
<svg width="180" height="180" viewBox="0 0 180 180" fill="none" xmlns="http://www.w3.org/2000/svg">
  <rect width="180" height="180" fill="#4F46E5"/>
  <path d="M90 45C72.3269 45 58 59.3269 58 77C58 94.6731 72.3269 109 90 109C107.673 109 122 94.6731 122 77C122 59.3269 107.673 45 90 45ZM90 99C77.8497 99 68 89.1503 68 77C68 64.8497 77.8497 55 90 55C102.15 55 112 64.8497 112 77C112 89.1503 102.15 99 90 99Z" fill="white"/>
  <path d="M90 65C82.268 65 76 71.268 76 79C76 86.732 82.268 93 90 93C97.732 93 104 86.732 104 79C104 71.268 97.732 65 90 65ZM90 87C85.5817 87 82 83.4183 82 79C82 74.5817 85.5817 71 90 71C94.4183 71 98 74.5817 98 79C98 83.4183 94.4183 87 90 87Z" fill="white"/>
</svg> 